<?xml version="1.0" encoding="iso-8859-1"?>
<!-- Generator: Adobe Illustrator 19.0.0, SVG Export Plug-In . SVG Version: 6.00 Build 0)  -->
<svg version="1.1" id="Capa_1" xmlns="http://www.w3.org/2000/svg" xmlns:xlink="http://www.w3.org/1999/xlink" x="0px" y="0px"
	 viewBox="0 0 511.999 511.999" style="enable-background:new 0 0 511.999 511.999;" xml:space="preserve">
<path style="fill:#EDF2FA;" d="M376.531,322.418L376.531,322.418c-4.257-12.072-6.431-24.78-6.431-37.581v-57.713
	c0-12.8,2.175-25.508,6.431-37.58l0,0c4.297-12.188-7.437-23.922-19.626-19.626l0,0c-11.61,4.094-23.832,6.185-36.144,6.185H191.217
	c-12.311,0-24.532-2.092-36.144-6.185l0,0c-12.188-4.297-23.922,7.438-19.626,19.626l0,0c4.257,12.072,6.431,24.779,6.431,37.581
	v57.713c0,12.8-2.175,25.508-6.431,37.581l0,0c-4.297,12.188,7.438,23.922,19.626,19.626l0,0c11.61-4.094,23.832-6.185,36.144-6.185
	h129.545c12.311,0,24.532,2.092,36.144,6.185l0,0C369.093,346.34,380.827,334.606,376.531,322.418z"/>
<path style="fill:#72D8FF;" d="M462.92,389.043c61.382-95.256,50.393-223.61-32.994-306.998
	C342.41-5.472,205.355-13.258,109.024,58.687l34.803,34.101c77.13-53.14,183.556-45.409,252.16,23.196
	c64.534,64.534,75.196,162.529,32.005,238.13l-18.013-18.013v73.995h73.995L462.92,389.043z"/>
<path style="fill:#FF5D5D;" d="M49.058,122.92c-61.382,95.256-50.393,223.61,32.994,306.998
	c87.516,87.516,224.571,95.303,320.902,23.357l-34.803-34.101c-77.13,53.14-183.556,45.409-252.16-23.196
	c-64.534-64.534-75.196-162.529-32.005-238.13l18.013,18.013v-73.995H28.004L49.058,122.92z"/>
<path d="M375.15,412.033c-3.421-3.351-8.731-3.808-12.672-1.092c-74.579,51.38-175.267,42.115-239.416-22.034
	C66.412,332.26,52.219,245.816,86.516,174.52l8.411,8.412c2.859,2.86,7.16,3.713,10.897,2.168c3.736-1.548,6.173-5.194,6.173-9.238
	v-73.995c0-5.522-4.478-9.999-9.999-9.999H28.003c-4.045,0-7.69,2.437-9.238,6.173c-1.548,3.737-0.691,8.037,2.168,10.897
	l15.443,15.442c-49.423,82.356-48.447,186.778,3.117,268.291c2.952,4.668,9.129,6.059,13.796,3.105
	c4.668-2.952,6.058-9.129,3.105-13.796C7.529,304.734,7.949,205.174,57.462,128.337c2.55-3.958,1.994-9.158-1.335-12.487
	l-3.984-3.984h39.854v39.854l-0.942-0.942c-2.204-2.203-5.311-3.254-8.398-2.84c-3.089,0.413-5.809,2.244-7.354,4.95
	C28.947,234.03,42.77,336.9,108.919,403.05c40.276,40.276,93.561,60.996,147.215,60.992c38.274-0.003,76.75-10.555,110.785-32.073
	l20.488,20.074c-78.812,52.965-182.783,53.505-262.354,0.323c-4.59-3.067-10.799-1.834-13.87,2.758
	c-3.068,4.592-1.834,10.801,2.758,13.87c42.988,28.73,92.531,43.006,142.011,43.006c53.949,0,107.822-16.981,152.985-50.713
	c2.34-1.747,3.799-4.43,3.994-7.344c0.195-2.913-0.894-5.767-2.979-7.81L375.15,412.033z"/>
<path d="M88.707,422.43c-3.906-3.904-10.235-3.904-14.142,0c-3.905,3.905-3.905,10.236,0,14.142l0.416,0.417
	c1.953,1.952,4.512,2.929,7.071,2.929c2.559,0,5.118-0.977,7.071-2.929c3.905-3.905,3.905-10.236,0-14.142L88.707,422.43z"/>
<path d="M388.894,123.032c1.955,1.967,4.523,2.951,7.094,2.951c2.549,0,5.098-0.969,7.049-2.906
	c3.917-3.893,3.938-10.224,0.045-14.142l-0.48-0.48c-3.906-3.904-10.235-3.904-14.142,0c-3.905,3.905-3.905,10.236,0,14.142
	L388.894,123.032z"/>
<path d="M475.6,387.582c28.176-46.994,40.605-102.596,35.06-157.495c-5.903-58.427-32.063-113.513-73.663-155.114
	c-43.771-43.77-101.85-70.186-163.538-74.382c-61.096-4.149-121.612,13.633-170.418,50.085c-2.34,1.747-3.799,4.43-3.994,7.344
	c-0.195,2.913,0.893,5.767,2.979,7.81l34.803,34.101c3.42,3.35,8.73,3.807,12.672,1.092c63.701-43.888,149.297-43.884,212.994,0.012
	c4.548,3.133,10.772,1.987,13.908-2.56c3.134-4.548,1.987-10.774-2.56-13.908C339.128,60.644,298.379,47.999,256,47.997
	c-0.006,0-0.006,0-0.011,0c-39.596,0-77.773,11.038-110.931,31.999l-20.485-20.071C217.037-2.14,343.283,9.544,422.855,89.116
	c78.029,78.029,91.344,201.888,31.659,294.509c-2.55,3.958-1.994,9.158,1.335,12.487l3.984,3.984h-39.854v-39.854l0.942,0.942
	c2.204,2.204,5.311,3.257,8.398,2.84c3.089-0.413,5.809-2.244,7.354-4.95c18.806-32.916,28.219-70.456,27.225-108.562
	c-0.998-38.234-12.439-75.333-33.091-107.286c-2.997-4.639-9.186-5.971-13.825-2.971c-4.639,2.997-5.969,9.187-2.971,13.825
	c35.816,55.42,39.851,124.544,11.456,183.369l-8.418-8.419c-2.859-2.86-7.161-3.714-10.897-2.168
	c-3.736,1.548-6.173,5.194-6.173,9.238v73.995c0,5.522,4.478,9.999,9.999,9.999h73.995c4.045,0,7.69-2.437,9.238-6.173
	c1.547-3.737,0.691-8.037-2.168-10.897L475.6,387.582z"/>
<path d="M126.017,319.093c-3.28,9.303-0.984,19.415,5.991,26.39c6.975,6.975,17.087,9.272,26.39,5.991
	c10.569-3.727,21.612-5.616,32.819-5.616h129.544c11.207,0,22.25,1.89,32.819,5.616c2.805,0.989,5.682,1.471,8.524,1.471
	c6.589,0,12.993-2.589,17.865-7.462c6.976-6.976,9.27-17.087,5.991-26.39c-3.89-11.032-5.862-22.559-5.862-34.256v-57.713
	c0-11.697,1.973-23.223,5.862-34.256c3.28-9.303,0.984-19.415-5.991-26.39s-17.088-9.273-26.39-5.991
	c-10.569,3.727-21.612,5.616-32.819,5.616H191.217c-11.207,0-22.25-1.89-32.819-5.616c-9.302-3.282-19.416-0.985-26.39,5.991
	c-6.976,6.976-9.27,17.087-5.991,26.39c3.89,11.032,5.862,22.559,5.862,34.256v57.713
	C131.879,296.535,129.907,308.061,126.017,319.093z M144.877,186.219c-1.018-2.888,0.551-4.878,1.271-5.6
	c0.722-0.721,2.713-2.286,5.6-1.271c12.712,4.482,25.991,6.755,39.469,6.755h129.544c13.478,0,26.757-2.272,39.469-6.755
	c2.888-1.015,4.878,0.552,5.6,1.271c0.721,0.722,2.289,2.712,1.271,5.6c-4.646,13.174-7.001,26.936-7.001,40.905v57.713
	c0,13.969,2.355,27.731,7.001,40.905c1.018,2.888-0.551,4.878-1.271,5.6c-0.722,0.721-2.714,2.285-5.6,1.271
	c-12.712-4.482-25.991-6.755-39.469-6.755H191.217c-13.478,0-26.757,2.272-39.469,6.755c-2.886,1.016-4.877-0.551-5.6-1.271
	c-0.721-0.722-2.289-2.712-1.271-5.6c4.646-13.174,7.001-26.936,7.001-40.905v-57.713
	C151.878,213.156,149.523,199.393,144.877,186.219z"/>
<path d="M168.75,277.267c-3.481,2.561-4.925,7.067-3.578,11.173c1.348,4.106,5.181,6.883,9.501,6.883h30.995
	c5.522,0,9.999-4.478,9.999-9.999s-4.478-9.999-9.999-9.999h-5.563c8.083-9.292,15.562-21.155,15.562-33.238
	c0-15.25-10.246-25.496-25.496-25.496c-14.06,0-25.497,11.437-25.497,25.496c0,5.522,4.478,9.999,9.999,9.999
	s9.999-4.478,9.999-9.999c0-3.031,2.467-5.498,5.499-5.498c4.622,0,5.498,1.933,5.498,5.498
	C195.67,253.648,177.529,270.784,168.75,277.267z"/>
<path d="M236.098,265.981h21.516v19.459c0,5.522,4.478,9.999,9.999,9.999s9.999-4.478,9.999-9.999v-19.721
	c4.439-1.021,7.753-4.989,7.753-9.737c0-4.749-3.314-8.716-7.753-9.737v-19.656c0-5.522-4.478-9.999-9.999-9.999
	s-9.999,4.478-9.999,9.999v19.394h-11.516v-19.394c0-5.522-4.478-9.999-9.999-9.999s-9.999,4.478-9.999,9.999v29.393
	C226.099,261.503,230.575,265.981,236.098,265.981z"/>
<path d="M308.132,295.323c5.522,0,9.999-4.478,9.999-9.999v-8.204v-6.382c0-2.529,2.058-4.587,4.587-4.587
	c2.529,0,4.587,2.058,4.587,4.587v14.586c0,5.522,4.478,9.999,9.999,9.999s9.999-4.478,9.999-9.999v-14.586
	c0-13.557-11.028-24.585-24.585-24.585c-1.568,0-3.1,0.154-4.587,0.436v-19.999c0-5.522-4.478-9.999-9.999-9.999
	s-9.999,4.478-9.999,9.999v44.148v6.382v8.204C298.133,290.845,302.61,295.323,308.132,295.323z"/>
<g>
</g>
<g>
</g>
<g>
</g>
<g>
</g>
<g>
</g>
<g>
</g>
<g>
</g>
<g>
</g>
<g>
</g>
<g>
</g>
<g>
</g>
<g>
</g>
<g>
</g>
<g>
</g>
<g>
</g>
</svg>
