<?xml version="1.0" encoding="utf-8"?>
<!-- Generator: Adobe Illustrator 19.0.0, SVG Export Plug-In . SVG Version: 6.00 Build 0)  -->
<svg xmlns="http://www.w3.org/2000/svg" xmlns:xlink="http://www.w3.org/1999/xlink" version="1.1" id="Layer_1" x="0px" y="0px" viewBox="0 2 98 98" style="enable-background:new 0 2 98 98;" xml:space="preserve" width="512" height="512">
<style type="text/css">
	.st0{fill:url(#SVGID_1_);}
	.st1{fill:url(#SVGID_2_);}
</style>
<g>
	<linearGradient id="SVGID_1_" gradientUnits="userSpaceOnUse" x1="49.05" y1="12" x2="49.05" y2="94.1234">
		<stop offset="0" style="stop-color:#00EFD1"/>
		<stop offset="1" style="stop-color:#00ACEA"/>
	</linearGradient>
	<path class="st0" d="M17.8,54.8c1.7,0,3-1.3,3-3V31.6H73l-7.6,7.6c-1.2,1.2-1.2,3.1,0,4.2c0.6,0.6,1.4,0.9,2.1,0.9s1.5-0.3,2.1-0.9   l12.3-12.3c0.8-0.5,1.4-1.5,1.4-2.5c0-1.1-0.5-2-1.4-2.5L69.6,13.7c-1.2-1.2-3.1-1.2-4.2,0c-1.1,1.2-1.2,3.1,0,4.2l7.6,7.7H17.8   c-1.7,0-3,1.3-3,3v23.2C14.8,53.5,16.1,54.8,17.8,54.8z"/>
	<linearGradient id="SVGID_2_" gradientUnits="userSpaceOnUse" x1="48.9" y1="12" x2="48.9" y2="94.1234">
		<stop offset="0" style="stop-color:#00EFD1"/>
		<stop offset="1" style="stop-color:#00ACEA"/>
	</linearGradient>
	<path class="st1" d="M80.2,50.2c-1.7,0-3,1.3-3,3v21.2H25l7.6-7.6c1.2-1.2,1.2-3.1,0-4.2c-1.2-1.2-3.1-1.2-4.2,0L15.6,75.3   c-0.1,0.1-0.3,0.3-0.4,0.5c0,0.1-0.1,0.1-0.1,0.2c-0.1,0.1-0.1,0.2-0.2,0.3c0,0.1-0.1,0.2-0.1,0.3c0,0.1-0.1,0.2-0.1,0.3   c0,0.2-0.1,0.4-0.1,0.6v0.1c0,0.2,0,0.3,0.1,0.5c0,0.1,0,0.2,0.1,0.3c0,0.1,0.1,0.2,0.1,0.3c0,0.1,0.1,0.2,0.1,0.3   c0,0.1,0.1,0.2,0.1,0.2c0.1,0.1,0.2,0.2,0.3,0.4c0,0,0,0.1,0.1,0.1l12.7,12.8c0.6,0.6,1.4,0.9,2.1,0.9c0.8,0,1.5-0.3,2.1-0.9   c1.2-1.2,1.2-3.1,0-4.2L25,80.4h55.2c1.7,0,3-1.3,3-3V53.2C83.2,51.5,81.8,50.2,80.2,50.2z"/>
</g>
</svg>
